<?xml version="1.0" standalone="no"?>
<!DOCTYPE svg PUBLIC "-//W3C//DTD SVG 20010904//EN"
 "http://www.w3.org/TR/2001/REC-SVG-20010904/DTD/svg10.dtd">
<svg version="1.0" xmlns="http://www.w3.org/2000/svg"
 width="829.000000pt" height="1280.000000pt" viewBox="0 0 829.000000 1280.000000"
 preserveAspectRatio="xMidYMid meet">
<metadata>
Created by potrace 1.15, written by Peter Selinger 2001-2017
</metadata>
<g transform="translate(0.000000,1280.000000) scale(0.100000,-0.100000)"
fill="#2196f3" stroke="none">
<path d="M2544 12786 c-54 -24 -84 -77 -181 -317 -103 -256 -118 -320 -89
-378 46 -88 160 -94 229 -12 36 44 227 528 227 577 0 97 -102 168 -186 130z"/>
<path d="M7119 12771 c-43 -43 -36 -76 34 -179 331 -484 416 -1093 231 -1662
-46 -140 -158 -363 -241 -480 -123 -171 -327 -367 -495 -474 -159 -101 -367
-184 -568 -227 -141 -31 -465 -34 -605 -6 -120 24 -266 69 -377 117 -105 46
-145 50 -175 18 -53 -58 -40 -92 91 -239 281 -317 661 -531 1071 -605 125 -22
389 -30 511 -15 556 69 1036 367 1350 838 405 607 454 1398 129 2058 -105 214
-223 372 -406 550 -159 153 -399 318 -483 332 -30 5 -40 1 -67 -26z"/>
<path d="M1115 12783 c-64 -17 -111 -89 -102 -157 7 -47 194 -490 231 -546 49
-74 148 -91 207 -34 34 33 53 92 44 137 -14 62 -216 522 -243 551 -37 39 -95
60 -137 49z"/>
<path d="M1678 11950 c-210 -44 -393 -144 -544 -296 -329 -333 -404 -842 -182
-1254 272 -508 897 -709 1415 -454 654 320 801 1191 289 1708 -155 157 -348
259 -565 300 -113 22 -301 20 -413 -4z"/>
<path d="M4950 11922 c-27 -22 -39 -79 -40 -187 0 -44 -3 -130 -7 -192 l-6
-111 -171 -108 c-195 -122 -213 -136 -221 -175 -7 -32 15 -83 42 -94 10 -4
105 -40 212 -80 l194 -72 57 -218 c64 -246 72 -258 144 -253 40 3 44 7 169
163 70 88 133 168 140 179 12 17 21 18 172 7 88 -6 193 -12 234 -13 70 -2 74
-1 98 27 42 48 30 80 -104 281 l-120 179 79 195 c43 107 79 209 80 225 2 42
-16 70 -52 85 -28 11 -51 7 -247 -48 l-216 -61 -174 145 c-147 122 -179 144
-207 144 -19 0 -44 -8 -56 -18z"/>
<path d="M3560 11769 c-125 -50 -461 -197 -485 -212 -47 -31 -68 -66 -73 -123
-4 -48 -2 -55 31 -90 35 -38 37 -39 104 -39 64 0 82 6 308 103 252 108 295
135 316 199 36 109 -86 208 -201 162z"/>
<path d="M84 11736 c-62 -28 -95 -98 -75 -159 22 -66 62 -91 326 -198 264
-107 308 -118 370 -88 103 49 94 193 -15 249 -96 49 -489 202 -530 206 -27 3
-57 -1 -76 -10z"/>
<path d="M3073 10510 c-77 -47 -82 -152 -10 -218 40 -37 501 -223 567 -228
100 -9 170 57 155 148 -14 78 -49 102 -332 216 -275 111 -317 121 -380 82z"/>
<path d="M352 10401 c-140 -60 -265 -119 -279 -132 -29 -27 -53 -77 -53 -110
0 -36 31 -88 65 -109 62 -39 104 -30 353 76 125 53 246 107 269 120 106 61
113 197 13 249 -60 31 -101 21 -368 -94z"/>
<path d="M2383 9789 c-18 -5 -44 -25 -60 -46 -50 -65 -43 -103 71 -368 54
-126 109 -249 122 -272 30 -52 98 -88 149 -79 73 14 125 94 110 169 -4 18 -54
143 -111 278 -108 254 -133 294 -197 318 -33 13 -40 13 -84 0z"/>
<path d="M1354 9779 c-18 -5 -45 -24 -62 -43 -39 -44 -232 -527 -232 -580 0
-49 33 -112 70 -131 56 -29 116 -17 166 34 41 41 234 522 234 582 0 45 -29
108 -58 126 -29 17 -83 23 -118 12z"/>
<path d="M6390 8290 c-47 -13 -784 -388 -903 -460 -268 -162 -454 -308 -663
-521 -126 -130 -296 -331 -317 -376 -21 -46 22 -113 73 -113 15 0 53 11 86 24
186 76 406 73 594 -8 106 -45 181 -97 282 -196 93 -89 118 -105 152 -94 12 4
57 43 101 88 44 45 114 104 155 131 66 44 198 101 273 119 l27 6 0 -635 0
-635 -27 -42 -28 -41 -5 -336 c-3 -185 -9 -342 -13 -348 -12 -19 -66 -15 -113
6 -40 18 -64 43 -107 111 -67 104 -205 108 -268 8 -17 -28 -20 -45 -16 -108 5
-93 30 -152 92 -219 106 -113 260 -160 462 -140 204 21 320 136 343 341 12
105 13 620 1 672 -5 21 -21 50 -35 65 l-26 27 0 638 0 638 33 -7 c165 -36 288
-106 432 -247 144 -143 141 -142 273 -10 108 109 180 160 292 208 189 82 387
84 597 8 63 -23 74 -25 99 -12 37 17 59 57 50 91 -3 15 -47 87 -96 160 -273
405 -533 639 -925 832 -82 40 -269 126 -415 190 -146 65 -292 131 -325 148
-76 38 -104 46 -135 37z"/>
<path d="M1712 7806 c-212 -52 -405 -240 -514 -501 -28 -68 -41 -90 -55 -89
-10 1 -48 6 -85 12 -270 42 -534 -151 -633 -462 -42 -131 -51 -327 -21 -456 5
-22 -1 -29 -56 -60 -35 -20 -101 -72 -149 -120 -69 -68 -94 -102 -127 -170
-55 -110 -76 -209 -69 -320 19 -296 235 -535 572 -632 69 -20 102 -23 240 -22
145 0 169 3 250 28 174 53 326 153 417 274 l46 61 27 -40 c16 -22 58 -67 95
-102 230 -215 578 -264 863 -121 114 57 174 108 288 248 4 4 27 -4 51 -18 82
-48 156 -67 273 -73 130 -6 200 8 315 64 109 53 223 170 278 284 98 203 92
424 -16 619 -34 62 -141 180 -191 211 l-23 15 37 67 c65 118 82 239 50 362
-24 92 -63 153 -150 241 -69 69 -98 90 -186 133 -149 74 -231 93 -419 98 -124
3 -172 0 -242 -15 l-88 -18 -10 32 c-15 44 -112 197 -157 248 -98 111 -243
201 -361 225 -69 14 -183 13 -250 -3z"/>
<path d="M4803 6198 c-196 -414 -218 -475 -218 -598 1 -76 4 -93 34 -155 44
-91 120 -166 208 -208 59 -27 79 -32 148 -32 69 0 89 5 148 32 88 42 165 116
208 200 32 63 34 73 34 167 0 80 -5 116 -24 171 -22 65 -344 761 -360 778 -4
4 -84 -156 -178 -355z"/>
<path d="M1687 3780 c-357 -64 -636 -320 -739 -676 -20 -68 -23 -101 -22 -239
0 -144 3 -169 27 -248 42 -135 116 -273 195 -359 14 -15 24 -29 21 -31 -2 -2
-32 -25 -66 -50 -219 -166 -373 -406 -445 -692 -19 -77 -23 -116 -22 -270 0
-202 16 -291 81 -454 159 -396 522 -683 946 -745 469 -70 928 136 1191 534 92
139 153 295 182 464 20 118 15 350 -10 461 -68 301 -258 580 -515 752 -2 1 11
19 29 40 57 65 128 181 159 261 50 130 64 226 58 382 -7 156 -21 219 -83 349
-116 247 -316 418 -581 497 -72 22 -113 27 -223 30 -74 1 -157 -1 -183 -6z"/>
<path d="M360 3371 c-49 -26 -83 -93 -77 -150 5 -47 27 -83 71 -115 39 -30
133 -29 173 0 70 53 88 154 39 219 -15 19 -40 42 -56 50 -40 20 -108 19 -150
-4z"/>
<path d="M3227 2839 c-58 -14 -92 -35 -131 -81 -41 -48 -56 -91 -56 -163 1
-125 91 -223 214 -232 82 -7 134 9 189 57 101 89 109 242 18 343 -58 64 -154
96 -234 76z"/>
<path d="M126 2785 c-152 -54 -167 -264 -24 -334 114 -55 244 13 264 137 13
84 -48 178 -133 201 -48 14 -59 13 -107 -4z"/>
<path d="M3495 1893 c-126 -34 -143 -216 -25 -275 97 -49 210 21 210 129 0 53
-20 94 -58 122 -31 21 -93 33 -127 24z"/>
<path d="M303 1690 c-40 -24 -53 -48 -53 -99 0 -106 134 -148 200 -63 24 30
26 98 4 130 -19 27 -65 52 -96 52 -13 0 -37 -9 -55 -20z"/>
<path d="M3355 1266 c-98 -44 -137 -173 -78 -263 73 -114 245 -111 311 5 26
46 30 128 8 170 -19 36 -65 78 -99 91 -38 15 -106 13 -142 -3z"/>
<path d="M215 771 c-138 -35 -213 -180 -160 -307 62 -149 264 -189 372 -72
106 113 70 293 -72 366 -29 15 -105 22 -140 13z"/>
<path d="M3633 258 c-36 -9 -82 -60 -84 -91 -4 -71 13 -107 63 -133 122 -63
239 102 138 196 -33 31 -71 40 -117 28z"/>
</g>
</svg>
